<svg xmlns="http://www.w3.org/2000/svg" width="512" height="512" viewBox="0 0 512 512" version="1.1">
	<path d="M 94.420 17.086 C 90 19.356, 88.500 23.768, 88.500 34.500 C 88.500 40, 88.846 46.433, 89.269 48.795 C 90.007 52.916, 89.954 53.046, 87.981 51.990 C 86.849 51.384, 84.032 51.026, 81.719 51.194 C 78.179 51.452, 77.290 51.971, 76.093 54.479 C 73.244 60.449, 77.998 76.976, 86.990 92.361 C 89.195 96.134, 91 99.443, 91 99.714 C 91 99.985, 87.963 97.529, 84.250 94.256 C 69.729 81.457, 61.969 76.800, 55.164 76.800 C 50.387 76.800, 46.594 81.004, 45.105 87.948 C 43.655 94.708, 43.706 97.054, 45.535 107.539 C 46.826 114.941, 48.286 119.448, 53.687 132.700 C 53.962 133.377, 52.646 134.539, 50.668 135.365 C 46.467 137.121, 44.501 140.199, 45.905 142.823 C 46.442 143.825, 48.755 145.944, 51.046 147.532 L 55.212 150.419 52.356 151.459 C 43.993 154.507, 41.900 158.703, 44.419 167.370 C 46.915 175.955, 54.313 184.985, 66.847 194.747 L 69.193 196.575 63.885 200.537 C 57.446 205.343, 54 210.210, 54 214.498 C 54 218.114, 57.845 224.004, 63.101 228.440 C 66.934 231.675, 77.595 236.998, 80.243 236.999 C 81.392 237, 79.602 239.343, 74.993 243.870 C 67.642 251.091, 66.383 254.240, 69.570 257.427 C 71.947 259.805, 75.451 260.339, 84.228 259.662 L 92.213 259.046 90.620 261.273 C 86.949 266.404, 81.681 276.409, 80.388 280.705 C 78.237 287.853, 78.561 297.173, 81.073 300.365 C 84.530 304.761, 89.113 303.483, 103.402 294.138 C 107.747 291.295, 111.470 289.136, 111.673 289.340 C 111.876 289.543, 109.564 293.905, 106.533 299.033 C 100.505 309.236, 99.131 313.796, 100.909 317.700 C 101.978 320.045, 102.467 320.210, 107.061 319.768 C 109.960 319.490, 115.074 317.789, 119.260 315.711 C 123.224 313.743, 126.571 312.238, 126.699 312.366 C 126.826 312.493, 125.192 315.051, 123.067 318.049 C 116.816 326.869, 114 332.894, 114 337.449 C 114 347.128, 121.537 346.325, 136.420 335.061 C 140.039 332.321, 143 330.176, 143 330.293 C 143 330.410, 142.100 333.654, 141 337.500 C 139.900 341.346, 139 346.241, 139 348.378 L 139 352.262 142.579 351.681 L 146.159 351.100 145.469 355.300 C 145.089 357.610, 142.803 367.336, 140.389 376.914 C 135.287 397.157, 134.814 404.951, 138.054 415.439 C 139.184 419.097, 141.352 423.481, 142.872 425.182 C 145.549 428.178, 145.756 428.236, 149.485 427.005 C 153.251 425.762, 153.393 425.806, 156.012 429.015 C 159.744 433.587, 162.985 432.704, 166.151 426.254 C 168.158 422.164, 168.477 420.034, 168.435 411 C 168.404 404.187, 167.916 399.635, 167.044 398.037 C 165.702 395.574, 165.702 395.574, 164.901 397.740 C 164.460 398.931, 163.567 404.764, 162.917 410.703 C 162.267 416.641, 161.408 422.118, 161.008 422.874 C 159.996 424.789, 158.081 419.007, 157.316 411.719 C 156.982 408.539, 156.274 405.669, 155.742 405.341 C 154.302 404.450, 153.037 407.045, 152.984 411 C 152.939 414.295, 152.850 414.386, 151.468 412.559 C 150.661 411.491, 149.998 408.566, 149.995 406.059 L 149.990 401.500 147.663 404.408 C 145.661 406.910, 145.244 407.077, 144.679 405.606 C 143.682 403.007, 145.541 391.930, 148.431 383.254 C 149.852 378.989, 153.970 364.700, 157.583 351.500 C 166.467 319.035, 169.251 310.376, 174.080 300.186 C 179.938 287.824, 181.567 282.837, 186.557 262 C 190.192 246.819, 190.988 241.783, 190.993 233.932 C 191.002 222.182, 193.003 214.797, 197.360 210.440 C 200.171 207.629, 201.534 207.141, 209.513 206.088 C 214.456 205.437, 219.501 204.694, 220.723 204.439 C 222.507 204.067, 223.341 204.749, 224.940 207.882 C 227.293 212.496, 232.376 215.264, 241.820 217.075 C 247.351 218.136, 248.341 218.087, 249.748 216.681 C 251.552 214.877, 251.842 215.058, 243.844 212.994 C 241.284 212.333, 237.699 210.887, 235.878 209.779 L 232.567 207.766 236.272 205.865 C 241.500 203.183, 243.192 200.046, 243.770 191.968 C 244.044 188.136, 244.427 185, 244.620 185 C 244.813 185, 247.668 186.414, 250.964 188.142 L 256.958 191.283 262.832 189.142 C 266.062 187.964, 268.997 187, 269.353 187 C 269.709 187, 270 189.221, 270 191.935 C 270 198.427, 271.379 201.901, 275.288 205.258 C 278.444 207.967, 278.465 208.042, 276.500 209.564 C 275.400 210.415, 271.913 211.836, 268.750 212.720 C 262.707 214.410, 262.097 215.006, 264.429 216.941 C 265.497 217.828, 267.296 217.862, 271.541 217.077 C 279.134 215.673, 284.969 212.291, 286.922 208.162 L 288.500 204.824 298.437 205.429 C 305.228 205.843, 309.344 206.596, 311.437 207.809 C 317.777 211.481, 321.927 223.953, 321.981 239.500 C 322.022 250.881, 329.818 278.510, 339.148 300.337 C 342.401 307.948, 346.874 320.323, 349.088 327.837 C 351.302 335.352, 354.857 347.350, 356.988 354.500 C 359.119 361.650, 361.164 369.300, 361.532 371.500 C 361.899 373.700, 363.444 377.975, 364.964 381 C 368.388 387.815, 369.693 391.880, 370.819 399.250 C 371.716 405.125, 370.736 407.432, 369.650 402 C 368.583 396.666, 367 398.721, 367 405.441 C 367 408.984, 366.629 412.111, 366.176 412.391 C 365.723 412.671, 364.782 410.674, 364.084 407.952 C 361.793 399.013, 361.165 400.138, 359.466 416.234 C 358.844 422.123, 357.557 424.389, 356.608 421.265 C 356.314 420.294, 355.586 416.350, 354.992 412.500 C 352.803 398.323, 350.773 394.364, 349.412 401.619 C 348.119 408.510, 349.563 421.484, 352.135 426.086 C 355.954 432.920, 357.468 433.252, 361.807 428.203 C 365.260 424.185, 365.630 424.005, 367.500 425.422 C 370.305 427.546, 372.321 427.359, 374.725 424.750 C 378.046 421.146, 380.262 413.266, 380.278 405 C 380.295 396.543, 379.458 392.929, 374.026 378 C 371.925 372.225, 369.097 363.875, 367.743 359.444 L 365.281 351.388 368.052 351.794 C 373.203 352.550, 374.127 346.281, 370.416 335.763 C 369.686 333.693, 369.212 332, 369.364 332 C 369.515 332, 372.077 333.819, 375.058 336.043 C 378.038 338.267, 382.873 341.258, 385.801 342.691 L 391.126 345.296 393.813 343.299 C 398.870 339.541, 397.416 332.256, 389.187 320.118 C 387.092 317.028, 385.066 313.978, 384.685 313.339 C 384.304 312.700, 387.393 313.938, 391.550 316.089 C 402.850 321.937, 411 321.227, 411 314.395 C 411 311.543, 407.945 305.397, 401.616 295.513 C 399.155 291.670, 397.324 288.343, 397.548 288.119 C 397.771 287.896, 402.744 290.917, 408.598 294.834 C 414.452 298.750, 420.787 302.245, 422.677 302.599 C 429.688 303.915, 433.397 296.045, 431.063 284.804 C 429.799 278.714, 425.047 268.069, 421.537 263.463 L 419.223 260.426 429.003 260.463 C 437.250 260.494, 439.114 260.201, 440.892 258.595 C 442.051 257.547, 443 255.702, 443 254.495 C 443 251.332, 437.830 244.658, 432.017 240.319 L 427 236.573 432.848 235.380 C 444.721 232.959, 454.556 225.552, 457.078 217.134 C 458.171 213.486, 458.053 212.766, 455.700 208.751 C 453.241 204.556, 448.932 200.940, 442.566 197.731 C 439.706 196.288, 439.688 196.234, 441.863 195.543 C 445.398 194.421, 455.591 185.456, 460.059 179.539 C 465.908 171.791, 468.334 164.954, 466.996 159.985 C 465.933 156.037, 461.686 152, 458.596 152 C 455.963 152, 456.819 150.645, 461.120 148 C 465.797 145.124, 467.375 142.757, 466.485 139.951 C 465.731 137.577, 461.074 135, 457.538 135 L 454.978 135 458.899 127.201 C 464.905 115.255, 467.441 105.984, 467.431 96 C 467.422 86.679, 465.053 80.169, 460.850 77.920 C 454.934 74.754, 444.920 79.281, 431.423 91.223 C 423.003 98.673, 419.191 101.525, 418.533 100.866 C 418.310 100.644, 420.180 97.320, 422.687 93.481 C 431.966 79.274, 437.884 63.365, 436.300 56.884 C 435.112 52.020, 432.983 50.728, 427.145 51.327 L 421.790 51.877 422.434 49.189 C 422.788 47.710, 423.346 42.096, 423.674 36.714 C 424.168 28.615, 423.967 26.253, 422.508 23.017 C 416.335 9.329, 395.750 17.386, 374.088 41.969 C 351.691 67.386, 331.808 100.800, 316.469 138.799 C 313.295 146.663, 310.397 152.738, 310.030 152.299 C 309.663 151.859, 308.130 147.023, 306.623 141.551 C 300.452 119.138, 294.054 105.212, 286.422 97.580 C 270.643 81.800, 241.085 82.442, 225.692 98.898 C 219.537 105.478, 215.313 114.429, 208.949 134.372 C 206.119 143.243, 203.355 151.625, 202.808 153 L 201.813 155.500 199.947 152 C 198.921 150.075, 194.148 139.275, 189.340 128 C 178.337 102.197, 170.978 87.759, 161.342 73.071 C 143.878 46.453, 126.535 27.828, 111.996 20.079 C 105.594 16.666, 97.816 15.342, 94.420 17.086 M 103.517 35.981 C 101.933 37.731, 101.789 39.335, 102.280 49.731 C 104.275 91.934, 137.936 161.899, 166.242 182.678 L 171.420 186.479 167.460 187.182 C 165.282 187.568, 159.675 187.956, 155 188.042 C 145.157 188.224, 142.097 188.899, 140.641 191.208 C 136.372 197.975, 156.456 206.214, 169.802 203.170 C 172.168 202.631, 173.968 202.547, 173.802 202.984 C 173.636 203.421, 170.912 205.878, 167.750 208.444 C 158.474 215.971, 159.964 220.239, 173.037 223.588 C 182.322 225.967, 183.710 225.125, 186.954 215.143 L 189.640 206.875 186.570 204.324 C 179.494 198.445, 177.054 189.664, 180.594 182.818 C 182.228 179.659, 181.471 178.056, 178.327 178.015 C 175.902 177.984, 171 172.824, 171 170.304 C 171 168.300, 171.357 167.932, 172.750 168.501 C 180.711 171.756, 191.360 171.261, 195.855 167.426 C 196.050 167.260, 193.700 163.352, 190.632 158.741 C 187.564 154.131, 182.513 144.990, 179.407 138.429 C 156.891 90.861, 150.128 78.989, 134.385 59.398 C 123.894 46.342, 110.314 34.017, 106.405 34.004 C 105.803 34.002, 104.503 34.892, 103.517 35.981 M 399.400 37.854 C 394.349 41.551, 378.750 57.805, 372.868 65.500 C 363.629 77.589, 353.617 93.840, 346.994 107.500 C 343.261 115.200, 336.827 128.475, 332.697 137 C 328.566 145.525, 323.144 155.408, 320.647 158.962 C 315.626 166.107, 315.731 167.152, 321.718 169.655 C 326.181 171.521, 330.737 171.303, 335.859 168.978 C 341.267 166.524, 341 166.495, 341 169.548 C 341 172.612, 337.102 176.481, 332.476 178.008 L 329.146 179.107 331.051 183.304 C 334.519 190.943, 333.060 197.015, 326.286 203.128 L 322.265 206.755 324.607 213.628 C 325.895 217.407, 326.960 221.287, 326.974 222.250 C 327.031 226.133, 346.312 222.944, 350.056 218.433 C 352.059 216.020, 349.813 212.698, 342.914 207.866 L 336.680 203.500 347.590 202.956 C 359.012 202.386, 364.462 200.793, 368.736 196.778 C 369.981 195.608, 371 193.641, 371 192.405 C 371 189.687, 370.056 189.454, 353.009 187.952 C 346.139 187.347, 340.404 186.737, 340.264 186.597 C 340.123 186.457, 342.942 183.963, 346.526 181.054 C 365.350 165.782, 381.246 140.987, 395.423 104.787 C 402.741 86.100, 406.430 74.483, 408.527 63.521 C 410.230 54.622, 410.475 39.755, 408.965 36.934 C 407.498 34.193, 403.934 34.536, 399.400 37.854 M 110 62.574 C 110 65.825, 115.290 79.801, 119.586 87.903 C 126.755 101.421, 138.008 116.021, 145.209 121.149 C 147.797 122.992, 147.440 122.221, 142.776 115.905 C 133.874 103.846, 127.107 92.441, 119.247 76.250 C 112.394 62.134, 110 58.593, 110 62.574 M 393.629 74.750 C 385.920 90.254, 376.269 106.698, 369.413 116.012 C 365.219 121.708, 365.073 122.084, 367.812 120.134 C 371.824 117.277, 379.367 108.814, 384.068 101.897 C 391.314 91.233, 402 67.394, 402 61.895 C 402 59.007, 399.702 62.536, 393.629 74.750 M 261 114.050 C 261 116.473, 264.178 120.946, 267.226 122.812 C 273.159 126.445, 278.304 127.247, 286.665 125.842 L 294.208 124.575 291.148 121.841 C 289.465 120.337, 286.606 118.899, 284.794 118.645 C 271.068 116.719, 266.524 115.780, 264.676 114.486 C 262.180 112.737, 261 112.597, 261 114.050 M 435.823 115.750 C 434.420 117.263, 430.938 122.001, 428.085 126.280 C 418.540 140.598, 405.472 150.969, 391.697 155.158 C 387.955 156.296, 384.732 157.063, 384.535 156.864 C 384.338 156.664, 388.150 153.220, 393.007 149.211 C 402.967 140.989, 412.614 129.807, 414.513 124.285 C 417.105 116.744, 413.013 114.044, 405.586 118.396 C 397.847 122.932, 392.828 128.975, 385.121 143.037 C 377.014 157.831, 371.664 165.821, 364.628 173.647 C 362.082 176.478, 360 179.029, 360 179.315 C 360 179.602, 362.940 180.815, 366.533 182.011 C 374.409 184.632, 379 188.195, 379 191.688 C 379 198.187, 372.591 205.522, 363.337 209.614 L 358.067 211.945 360.617 216.860 C 363.025 221.501, 363.081 221.943, 361.617 224.773 C 358.157 231.464, 343.655 241.232, 335.167 242.589 C 332.851 242.960, 330.698 243.679, 330.384 244.188 C 329.638 245.395, 334.492 263.102, 337.290 269.382 C 339.172 273.604, 339.538 273.957, 340.003 271.989 C 340.471 270.003, 341.029 270.508, 344.404 275.975 C 351.204 286.992, 356.834 291.993, 357.097 287.250 C 357.527 279.489, 354.630 266.582, 349.241 252.250 C 347.535 247.713, 346.300 244, 346.496 244 C 346.693 244, 348.308 246.543, 350.086 249.650 C 357.318 262.290, 381 282.403, 381 275.905 C 381 274.672, 375.222 266.058, 364.963 252 C 361.151 246.775, 358.024 242.137, 358.016 241.693 C 358.007 241.249, 361.164 243.362, 365.031 246.387 C 374.049 253.443, 381.127 257.467, 389.925 260.541 C 397.978 263.355, 400 263.569, 400 261.610 C 400 259.281, 391.930 249.129, 380.133 236.618 C 373.971 230.084, 369.059 224.608, 369.216 224.450 C 369.374 224.293, 371.977 224.831, 375.001 225.646 C 383.089 227.826, 400.662 226.990, 408.266 224.063 C 414.512 221.660, 420.614 217.183, 419.310 215.961 C 418.865 215.544, 414.450 214.686, 409.500 214.054 C 398.920 212.705, 385.613 209.704, 380.280 207.464 C 375.448 205.435, 376.784 204.608, 387.496 202.994 C 402.622 200.714, 415.286 194.593, 424.082 185.310 C 426.787 182.455, 429 179.691, 429 179.167 C 429 177.126, 425.525 177.102, 416.694 179.080 C 399.290 182.981, 378 185.143, 378 183.011 C 378 182.467, 381.712 180.157, 386.250 177.876 C 397.693 172.125, 405.260 166.835, 413.862 158.572 C 425.841 147.065, 434.678 134.311, 439.006 122.286 C 442.183 113.458, 440.726 110.465, 435.823 115.750 M 71.667 114.667 C 68.855 117.478, 75.367 132.501, 84.724 144.791 C 96.018 159.626, 113.489 173.170, 128.203 178.498 C 131.666 179.752, 134.500 181.137, 134.500 181.575 C 134.500 184.569, 114.105 183.923, 97.701 180.410 C 80.862 176.804, 77 176.650, 77 179.585 C 77 181.955, 90.155 191.980, 98.500 195.970 C 107.388 200.220, 112.899 201.690, 123.988 202.771 C 129.719 203.329, 131.548 203.880, 131.786 205.122 C 131.994 206.204, 130.834 207.248, 128.299 208.260 C 124.394 209.818, 107.763 214.051, 98 215.971 C 88.380 217.863, 87.551 220.163, 95.169 223.825 C 104.228 228.179, 119.339 228.833, 133.707 225.493 C 136.884 224.754, 139.683 224.350, 139.927 224.593 C 140.437 225.104, 137.392 228.431, 119.750 246.639 C 112.738 253.876, 107 260.293, 107 260.899 C 107 262.634, 113.166 262.190, 120.645 259.915 C 127.634 257.789, 139.107 252.028, 146.750 246.807 C 149.087 245.210, 150.985 244.263, 150.967 244.702 C 150.948 245.141, 146.445 251.575, 140.960 259 C 127.990 276.558, 126.819 280.228, 135.583 275.852 C 142.404 272.447, 152.912 262.277, 159.383 252.819 C 162.472 248.304, 165 244.939, 165 245.343 C 165 245.746, 162.001 253.596, 158.335 262.788 C 151.312 280.395, 149.371 289, 152.420 289 C 154.936 289, 163.393 280.043, 167.169 273.379 L 170.500 267.500 171 271.831 L 171.500 276.161 173.154 273.331 C 175.039 270.104, 182 247.711, 182 244.873 C 182 243.482, 181.269 243, 179.159 243 C 171.664 243, 155.443 234.372, 151.425 228.249 C 149.088 224.688, 149.267 219.922, 151.898 215.665 L 153.996 212.270 149.248 210.522 C 138.395 206.524, 133.011 200.857, 133.004 193.424 C 132.999 188.319, 135.109 186.204, 144.334 182.071 L 151.168 179.008 146.007 173.254 C 138.924 165.355, 131.337 153.639, 124.589 140.180 C 118.506 128.048, 113.175 121.660, 106.135 118.069 C 100.879 115.388, 99.399 115.461, 97.407 118.502 C 95.850 120.878, 95.901 121.277, 98.413 126.412 C 101.626 132.979, 111.295 143.565, 120.871 151 C 124.767 154.025, 127.544 156.640, 127.042 156.812 C 125.321 157.400, 112.499 153.015, 107.500 150.129 C 100.003 145.800, 89.001 135.100, 83.010 126.311 C 75.306 115.009, 73.342 112.992, 71.667 114.667 M 237.452 120.371 C 222.761 126.781, 218 129.388, 218 131.023 C 218 133.660, 231.999 130.660, 241.688 125.946 C 247.834 122.956, 253 118.150, 253 115.423 C 253 113.530, 253.488 113.375, 237.452 120.371 M 255.092 122.089 C 251.874 128.322, 249.557 130.532, 240.750 135.771 C 236.488 138.307, 233 140.918, 233 141.574 C 233 143.145, 236.311 143.970, 242.691 143.986 C 245.546 143.994, 248.163 144.455, 248.507 145.011 C 248.851 145.567, 247.787 147.367, 246.143 149.011 C 242.936 152.218, 239.294 152.823, 234.398 150.961 C 231 149.669, 230.028 150.904, 230.037 156.500 C 230.051 164.853, 236.342 173.312, 248.350 181.123 C 256.455 186.396, 257.116 186.490, 263.705 183.303 C 276.818 176.960, 284 164.831, 284 149.025 C 284 144.701, 283.711 140.411, 283.359 139.492 C 283.006 138.573, 279.518 136.357, 275.609 134.568 C 268.890 131.493, 263.906 127.121, 258.935 119.940 L 257.370 117.679 255.092 122.089 M 265 144.984 C 262.599 146.511, 267.765 151.025, 272.667 151.682 C 275.906 152.117, 277.164 151.763, 279.487 149.765 C 284.193 145.717, 282.487 143.997, 273.781 144.015 C 269.777 144.024, 265.825 144.460, 265 144.984 M 254.082 165.368 C 250.725 170.799, 251.227 172, 256.854 172 L 261.708 172 259.315 167 C 257.999 164.250, 256.751 162, 256.543 162 C 256.334 162, 255.226 163.516, 254.082 165.368 M 254.603 174.167 C 254.886 174.625, 255.965 175, 257 175 C 258.035 175, 259.114 174.625, 259.397 174.167 C 259.680 173.708, 258.602 173.333, 257 173.333 C 255.398 173.333, 254.320 173.708, 254.603 174.167 M 209.601 230.250 C 208.807 231.488, 207.398 235.144, 206.471 238.376 C 204.437 245.463, 205.058 250.716, 208.653 256.851 C 213.819 265.667, 227.487 268.191, 239.735 262.591 C 249.991 257.902, 249.804 256.935, 238.783 257.659 C 227.453 258.403, 221.045 256.705, 216.158 251.663 C 211.984 247.357, 210.816 243.012, 211.610 234.750 C 212.301 227.552, 211.905 226.663, 209.601 230.250 M 301.411 230.501 C 304.102 241.224, 302.797 248.373, 297.325 252.884 C 292.313 257.015, 285.797 258.386, 275.322 257.514 C 265.640 256.707, 265.133 257.514, 272.861 261.430 C 283.241 266.689, 295.672 266.454, 301.638 260.886 C 308.453 254.526, 310.078 243.005, 305.536 233.250 C 302.993 227.787, 300.275 225.976, 301.411 230.501 M 208.260 272.250 C 196.573 306.260, 194.786 310.634, 183.847 332 C 171.288 356.530, 165.572 370.706, 166.308 375.500 C 166.561 377.150, 167.967 381.321, 169.431 384.768 C 171.059 388.599, 172.469 394.431, 173.060 399.768 C 173.591 404.571, 174.532 409.755, 175.150 411.288 C 177.521 417.168, 182.926 416.873, 184.882 410.758 C 186.727 404.989, 190.764 385.814, 192.515 374.500 C 194.648 360.723, 195.353 359.251, 197.439 364.218 C 198.439 366.600, 199 370.984, 199 376.417 C 199 395.203, 209.289 456.579, 218.064 490.132 L 219.014 493.765 227.609 494.481 C 232.336 494.874, 236.561 494.815, 236.997 494.348 C 237.434 493.882, 235.381 486.300, 232.436 477.500 C 226.047 458.410, 220.221 436.189, 216.049 415 C 206.904 368.549, 206.836 349.740, 215.703 318.122 C 218.156 309.375, 219.230 303.505, 219.200 299 C 219.130 288.381, 214.027 266, 211.676 266 C 210.978 266, 209.441 268.813, 208.260 272.250 M 298.537 268.750 C 297.339 271.850, 294.085 288.706, 293.432 295.200 C 292.885 300.633, 293.423 303.995, 297.339 319.621 C 305.456 352.015, 306.325 362.884, 302.970 390.057 C 298.967 422.476, 294.610 444.985, 286.489 475.201 C 284.020 484.386, 282 492.556, 282 493.356 C 282 494.554, 283.455 494.718, 290.250 494.282 C 294.788 493.991, 298.812 493.471, 299.194 493.127 C 299.888 492.499, 305.575 464.424, 308.435 447.500 C 312.029 426.238, 314.183 405.079, 314.819 384.799 C 315.285 369.942, 315.882 362.716, 316.713 361.886 C 318.426 360.175, 319.511 363.458, 323.010 380.942 C 328.533 408.531, 331.850 416.637, 337.061 415.274 C 341.074 414.224, 342.392 410.468, 342.553 399.618 C 342.678 391.177, 343.142 388.436, 345.351 383.078 C 346.808 379.545, 348 375.366, 348 373.790 C 348 368.915, 341.287 353.192, 332.496 337.479 C 322.843 320.224, 320.038 314.220, 315.459 301 C 312.380 292.112, 306.750 277.673, 303.469 270.250 C 301.898 266.697, 299.601 265.998, 298.537 268.750 M 184.715 302.312 C 182.966 304.981, 182.698 306.201, 182.913 310.500 C 183.055 313.320, 183.149 313.387, 184.491 311.615 C 185.942 309.698, 187.640 301.307, 186.756 300.423 C 186.489 300.156, 185.571 301.006, 184.715 302.312 M 325 303.032 C 325 306.974, 327.665 313.325, 328.979 312.513 C 330.661 311.473, 330.138 306.959, 327.918 303.368 C 326.774 301.516, 325.649 300, 325.418 300 C 325.188 300, 325 301.364, 325 303.032" stroke="none" fill="black" fill-rule="evenodd"/>
</svg>